<svg width="16" height="17" viewBox="0 0 16 17" fill="none" xmlns="http://www.w3.org/2000/svg">
<path d="M14.5555 1.8254C13.7301 0.968256 12.5555 0.523811 11.2222 0.523811H4.68252C1.92062 0.523811 0.0793457 2.36508 0.0793457 5.12699V11.6349C0.0793457 13 0.52379 14.1746 1.41268 15.0317C2.26982 15.8571 3.41268 16.2698 4.71427 16.2698H11.1905C12.5555 16.2698 13.6984 15.8254 14.5238 15.0317C15.3809 14.2064 15.8254 13.0317 15.8254 11.6667V5.12699C15.8254 3.79365 15.3809 2.6508 14.5555 1.8254ZM14.3651 11.6667C14.3651 12.6508 14.0793 13.4444 13.5079 13.9841C12.9365 14.5238 12.1428 14.8095 11.1905 14.8095H4.71427C3.76189 14.8095 2.96823 14.5238 2.39681 13.9841C1.82538 13.4127 1.53966 12.6191 1.53966 11.6349V5.12699C1.53966 4.1746 1.82538 3.38095 2.39681 2.80953C2.93649 2.26984 3.76189 1.98413 4.71427 1.98413H11.2539C12.2063 1.98413 13 2.26984 13.5714 2.84127C14.1111 3.4127 14.4285 4.20635 14.4285 5.12699V11.6667H14.3651Z" fill="black"/>
</svg>
